<?xml version="1.0" encoding="UTF-8"?><svg id="a" xmlns="http://www.w3.org/2000/svg" viewBox="0 0 1000 1000"><path d="M662.66,133.81l-168.44,164.81,93.27,531.62c2.1,21.45,19.92,37.93,41.46,38.36l126.04,2.54c20.36.41,38.16-13.68,42.43-33.59l136.23-634.5c5.11-23.8-10.77-47.03-34.8-50.91l-194.88-31.45c-15.07-2.43-30.4,2.43-41.31,13.11Z" fill="#d97706"/><path d="M377.91,557.78l18.35-285.98h79.51c28.92,0,54.24,19.43,61.71,47.37l96.08,359.15-39.87,194.15-215.78-314.69Z" fill="#88fcff"/><path d="M593.7,880.49c-2.61,0-5.09-1.28-6.61-3.48l-215.78-314.69c-1.01-1.48-1.5-3.25-1.39-5.04l18.35-285.98c.27-4.22,3.77-7.5,7.99-7.5h79.51c32.49,0,61.05,21.92,69.45,53.31l96.08,359.15c.32,1.2.36,2.46.11,3.68l-39.87,194.15c-.65,3.15-3.11,5.6-6.26,6.24-.53.11-1.06.16-1.59.16ZM386.08,555.53l203.56,296.86,35.69-173.83-95.59-357.33c-6.53-24.39-28.72-41.43-53.97-41.43h-72l-17.69,275.72Z" fill="#244a8f"/><path d="M417.72,356.88h127.09l-10.6-39.61c-7.18-26.82-31.47-45.47-59.24-45.47h-93.94l14.2,53.15,22.48,31.93Z" fill="#244a8f"/><path d="M544.81,364.9h-127.09c-2.61,0-5.05-1.27-6.55-3.4l-22.48-31.93c-.54-.77-.95-1.63-1.19-2.54l-14.2-53.15c-.64-2.41-.13-4.97,1.39-6.95,1.52-1.97,3.86-3.13,6.35-3.13h93.94c31.34,0,58.88,21.14,66.98,51.41l10.6,39.61c.64,2.41.13,4.97-1.38,6.95s-3.86,3.13-6.35,3.13ZM421.88,348.87h112.5l-7.9-29.53c-6.23-23.28-27.4-39.53-51.5-39.53h-83.51l11.14,41.7,19.27,27.36Z" fill="#244a8f"/><polygon points="559.32 404.05 456.37 404.05 456.37 445.36 570.37 445.36 559.32 404.05" fill="#244a8f"/><path d="M570.37,453.37h-114c-4.42,0-8.01-3.59-8.01-8.01v-41.31c0-4.42,3.59-8.01,8.01-8.01h102.95c3.63,0,6.8,2.44,7.74,5.94l11.05,41.31c.64,2.41.13,4.97-1.38,6.95s-3.86,3.13-6.35,3.13ZM464.38,437.35h95.55l-6.77-25.29h-88.79v25.29Z" fill="#244a8f"/><polygon points="595.65 553.3 492.7 553.3 503.97 635.3 617.97 635.3 595.65 553.3" fill="#244a8f"/><path d="M617.97,643.31h-114c-4,0-7.39-2.95-7.94-6.92l-11.27-82c-.32-2.29.38-4.61,1.9-6.36s3.72-2.75,6.04-2.75h102.95c3.61,0,6.78,2.42,7.73,5.91l22.32,82c.66,2.41.15,4.98-1.36,6.97-1.52,1.98-3.87,3.15-6.36,3.15ZM510.96,627.29h96.53l-17.96-65.98h-87.64l9.07,65.98Z" fill="#244a8f"/><path d="M852.99,880.14H92.09c-4.42,0-8.01-3.59-8.01-8.01s3.59-8.01,8.01-8.01h760.9c4.42,0,8.01,3.59,8.01,8.01s-3.59,8.01-8.01,8.01Z" fill="#244a8f"/><path d="M575.08,872.16H156.91c-6.49,0-12.2-4.28-14.03-10.51L21.5,447.68c-10.01-34.13,9.16-69.99,43.1-80.63l294.14-92.23c35.21-11.04,72.56,9.28,82.42,44.84l148.02,533.98c2.58,9.32-4.42,18.53-14.09,18.53Z" fill="#81b4fc"/><path d="M307.2,337.2l65.81-18.97c12.69-3.66,25.84,4.12,28.75,17l18.12,80.28c3.04,13.49-12.19,23.6-23.44,15.55l-93.84-67.16c-10.23-7.32-7.49-23.21,4.59-26.69Z" fill="#88fcff"/><path d="M349.06,875.89c-1.15,0-2.31-.25-3.42-.77-4-1.89-5.71-6.67-3.82-10.67l69.46-146.82c1.33-2.8-.1-4.92-.78-5.7-.68-.78-2.57-2.5-5.53-1.58l-169.31,52.41c-3.08.95-3.61,3.55-3.69,4.62s.04,3.72,2.94,5.13l67.83,33.03c3.98,1.94,5.63,6.73,3.7,10.71-1.94,3.98-6.73,5.63-10.71,3.69l-67.83-33.03c-7.9-3.85-12.57-11.99-11.9-20.76.67-8.76,6.53-16.11,14.93-18.7l169.31-52.41c8.18-2.53,16.76-.09,22.37,6.39,5.61,6.47,6.82,15.3,3.16,23.05l-69.46,146.82c-1.37,2.89-4.25,4.59-7.25,4.59Z" fill="#244a8f"/><path d="M225.72,676.63c-6.42,0-12.78-1.58-18.61-4.7-9.51-5.09-16.39-13.6-19.38-23.96l-44.36-154.09c-4.73-16.43,4.19-33.78,20.31-39.49l71.86-25.46-31.44-100.27c-1.32-4.22,1.03-8.72,5.25-10.04,4.22-1.32,8.72,1.03,10.04,5.25l33.75,107.64c1.29,4.11-.91,8.51-4.97,9.95l-79.14,28.04c-8.15,2.89-12.65,11.65-10.26,19.96l44.36,154.09c1.78,6.17,5.87,11.24,11.54,14.26,5.66,3.03,12.15,3.62,18.27,1.67l129.61-41.29c9.08-2.89,14.15-12.34,11.53-21.5l-26.03-91.33c-1.08-3.81-3.61-6.92-7.11-8.76-3.5-1.84-7.5-2.16-11.25-.9l-71.11,23.95c-2.03.68-3.15,2.83-2.57,4.88l12.42,43.54c.4,1.39,1.37,2.11,1.92,2.41.55.3,1.67.74,3.06.33l27.31-8.1c4.24-1.26,8.7,1.16,9.96,5.4,1.26,4.24-1.16,8.7-5.4,9.96l-27.31,8.1c-5.16,1.53-10.61.95-15.33-1.64-4.72-2.59-8.13-6.87-9.61-12.05l-12.42-43.54c-2.94-10.3,2.71-21.04,12.86-24.46l71.11-23.95c7.94-2.68,16.4-2,23.82,1.9,7.42,3.9,12.77,10.49,15.06,18.55l26.03,91.33c5,17.54-4.7,35.62-22.08,41.16l-129.61,41.29c-3.97,1.26-8.03,1.89-12.08,1.89Z" fill="#244a8f"/><path d="M594.31,880.17H145.96c-3.56,0-6.69-2.34-7.69-5.76L13.81,449.93c-5.43-18.53-3.41-38.12,5.69-55.15,9.1-17.03,24.27-29.6,42.7-35.38l294.14-92.23c19.12-5.99,39.34-4.02,56.94,5.55,17.6,9.58,30.24,25.48,35.59,44.79l153.15,552.51c.67,2.41.17,5-1.34,6.99-1.51,1.99-3.87,3.16-6.38,3.16ZM151.96,864.15h431.82l-150.34-542.36c-4.18-15.09-14.06-27.51-27.81-35-13.75-7.48-29.55-9.02-44.49-4.34l-294.14,92.23c-14.4,4.52-26.25,14.33-33.36,27.64-7.11,13.31-8.69,28.61-4.45,43.09l122.77,418.72Z" fill="#244a8f"/><rect x="858.93" y="162.09" width="116.3" height="116.3" rx="18.17" ry="18.17" transform="translate(44.58 -137.92) rotate(8.81)" fill="#244a8f"/><path d="M952.18,292.33c-1.25,0-2.5-.1-3.76-.29l-82.96-12.86c-13.18-2.04-22.24-14.43-20.19-27.6l12.86-82.96c.99-6.38,4.41-12,9.62-15.81,5.21-3.81,11.6-5.37,17.98-4.38l82.96,12.86c6.38.99,12,4.41,15.81,9.62s5.37,11.6,4.38,17.98l-12.86,82.96c-.99,6.38-4.41,12-9.62,15.81-4.19,3.06-9.13,4.67-14.23,4.67ZM882.01,164.16c-1.72,0-3.39.54-4.8,1.58-1.76,1.29-2.91,3.18-3.25,5.34l-12.86,82.96c-.69,4.45,2.37,8.63,6.82,9.32l82.96,12.86h0c2.16.33,4.31-.19,6.07-1.48s2.91-3.18,3.25-5.34l12.86-82.96c.33-2.15-.19-4.31-1.48-6.07s-3.18-2.91-5.34-3.25l-82.96-12.86c-.42-.07-.85-.1-1.27-.1Z" fill="#244a8f"/><rect x="889.78" y="175.11" width="72.83" height="72.83" rx="14.39" ry="14.39" transform="translate(43.35 -139.42) rotate(8.81)" fill="#88fcff"/><path d="M945.92,259.29c-1.06,0-2.13-.08-3.2-.25h0l-46.65-7.23c-11.35-1.76-19.14-12.42-17.39-23.77l7.23-46.65c1.76-11.35,12.42-19.14,23.77-17.39l46.65,7.23c11.35,1.76,19.14,12.42,17.39,23.77l-7.23,46.65c-1.59,10.27-10.48,17.63-20.56,17.63ZM945.17,243.21c2.62.4,5.07-1.39,5.48-4.01l7.23-46.65c.41-2.62-1.39-5.07-4.01-5.48l-46.65-7.23c-2.62-.41-5.07,1.39-5.48,4.01l-7.23,46.65c-.41,2.62,1.39,5.07,4.01,5.48l46.65,7.23Z" fill="#244a8f"/><rect x="674.34" y="133.46" width="116.3" height="116.3" rx="18.17" ry="18.17" transform="translate(38.01 -109.97) rotate(8.81)" fill="#244a8f"/><path d="M767.55,263.71c-1.23,0-2.47-.09-3.72-.29l-82.96-12.86c-13.18-2.04-22.24-14.43-20.19-27.6l12.86-82.96c2.04-13.18,14.43-22.23,27.6-20.19l82.96,12.86c6.38.99,12,4.41,15.81,9.62,3.81,5.21,5.37,11.6,4.38,17.98l-12.86,82.96c-1.85,11.93-12.17,20.48-23.88,20.48ZM697.44,135.54c-3.95,0-7.44,2.89-8.06,6.91l-12.86,82.96c-.69,4.45,2.37,8.63,6.82,9.32l82.96,12.86h0c2.16.33,4.31-.19,6.07-1.48s2.91-3.18,3.25-5.34l12.86-82.96c.33-2.16-.19-4.31-1.48-6.07-1.29-1.76-3.18-2.91-5.34-3.25l-82.96-12.86c-.42-.07-.84-.1-1.26-.1Z" fill="#244a8f"/><rect x="706.01" y="146.61" width="72.83" height="72.83" rx="14.39" ry="14.39" transform="translate(36.81 -111.6) rotate(8.81)" fill="#88fcff"/><path d="M762.15,230.79c-1.06,0-2.13-.08-3.2-.25h0l-46.65-7.23c-5.5-.85-10.33-3.79-13.61-8.28-3.28-4.49-4.62-9.99-3.77-15.48l7.23-46.65c1.76-11.34,12.42-19.15,23.77-17.38l46.65,7.23c5.5.85,10.33,3.79,13.62,8.28,3.28,4.49,4.62,9.99,3.77,15.48l-7.23,46.65c-1.59,10.27-10.48,17.63-20.56,17.63ZM761.4,214.71c2.61.4,5.07-1.39,5.48-4.01l7.23-46.65c.2-1.27-.11-2.54-.87-3.57-.76-1.04-1.87-1.71-3.14-1.91l-46.65-7.23c-2.62-.4-5.07,1.39-5.48,4.01l-7.23,46.65c-.2,1.27.11,2.54.87,3.57.76,1.04,1.87,1.71,3.14,1.91l46.65,7.23Z" fill="#244a8f"/><path d="M790.06,879.86c-.53,0-1.08-.05-1.62-.17-4.33-.89-7.13-5.12-6.23-9.46l128.3-624.51c.89-4.33,5.13-7.13,9.46-6.23,4.33.89,7.12,5.12,6.23,9.46l-128.3,624.51c-.78,3.79-4.12,6.4-7.84,6.4Z" fill="#244a8f"/><line x1="725.59" y1="255.46" x2="598.9" y2="872.13" fill="#244a8f"/><path d="M598.91,880.14c-.53,0-1.08-.05-1.62-.17-4.33-.89-7.12-5.12-6.23-9.46l126.69-616.67c.89-4.33,5.13-7.13,9.46-6.23,4.33.89,7.12,5.12,6.23,9.46l-126.69,616.67c-.78,3.79-4.12,6.4-7.84,6.4Z" fill="#244a8f"/><polygon points="634.45 676.98 540.2 676.98 594.31 872.16 634.45 676.98" fill="#244a8f"/><path d="M594.3,880.17c-3.59,0-6.75-2.39-7.72-5.87l-54.1-195.18c-.67-2.41-.17-5,1.34-6.99,1.51-1.99,3.87-3.16,6.38-3.16h94.25c2.41,0,4.69,1.08,6.21,2.95,1.52,1.87,2.12,4.32,1.64,6.68l-40.14,195.18c-.75,3.62-3.88,6.27-7.58,6.39-.09,0-.18,0-.27,0ZM550.74,684.99l42.42,153.02,31.47-153.02h-73.89Z" fill="#244a8f"/></svg>